<mxfile host="app.diagrams.net" modified="2021-10-13T14:00:04.136Z" agent="5.0 (Windows)" etag="JC_O2srZ0MJWnA4EDhNF" version="15.5.2" type="github">
  <diagram name="Page-1" id="2a216829-ef6e-dabb-86c1-c78162f3ba2b">
    <mxGraphModel dx="1240" dy="669" grid="1" gridSize="10" guides="1" tooltips="1" connect="1" arrows="1" fold="1" page="1" pageScale="1" pageWidth="850" pageHeight="1100" background="none" math="0" shadow="0">
      <root>
        <mxCell id="0" />
        <mxCell id="1" parent="0" />
        <mxCell id="7a84cebc1def654-1" value="клиент" style="shape=mxgraph.bpmn.shape;html=1;verticalLabelPosition=bottom;labelBackgroundColor=#ffffff;verticalAlign=top;perimeter=ellipsePerimeter;outline=standard;symbol=general;" parent="1" vertex="1">
          <mxGeometry x="260" y="265" width="50" height="50" as="geometry" />
        </mxCell>
        <mxCell id="7a84cebc1def654-2" value="Начало" style="shape=ext;rounded=1;html=1;whiteSpace=wrap;" parent="1" vertex="1">
          <mxGeometry x="360" y="250" width="120" height="80" as="geometry" />
        </mxCell>
        <mxCell id="7a84cebc1def654-3" value="принять заказ" style="shape=ext;rounded=1;html=1;whiteSpace=wrap;" parent="1" vertex="1">
          <mxGeometry x="530" y="250" width="120" height="80" as="geometry" />
        </mxCell>
        <mxCell id="7a84cebc1def654-5" value="отдел продаж" style="shape=message;whiteSpace=wrap;html=1;" parent="1" vertex="1">
          <mxGeometry x="570" y="175" width="40" height="30" as="geometry" />
        </mxCell>
        <mxCell id="x8mJ2KGKmqmnKPWXoIKg-1" value="" style="edgeStyle=orthogonalEdgeStyle;rounded=0;orthogonalLoop=1;jettySize=auto;html=1;" edge="1" parent="1" source="7a84cebc1def654-6" target="7a84cebc1def654-3">
          <mxGeometry relative="1" as="geometry" />
        </mxCell>
        <mxCell id="7a84cebc1def654-6" value="склад" style="shape=hexagon;whiteSpace=wrap;html=1;perimeter=hexagonPerimeter;" parent="1" vertex="1">
          <mxGeometry x="560" y="375" width="60" height="50" as="geometry" />
        </mxCell>
        <mxCell id="7a84cebc1def654-7" value="" style="html=1;shape=plus;" parent="7a84cebc1def654-6" vertex="1">
          <mxGeometry x="0.5" y="1" width="14" height="14" relative="1" as="geometry">
            <mxPoint x="-7" y="-14" as="offset" />
          </mxGeometry>
        </mxCell>
        <mxCell id="7a84cebc1def654-8" value="проверить наличие" style="shape=ext;rounded=1;html=1;whiteSpace=wrap;" parent="1" vertex="1">
          <mxGeometry x="530" y="475" width="120" height="80" as="geometry" />
        </mxCell>
        <mxCell id="x8mJ2KGKmqmnKPWXoIKg-2" value="" style="edgeStyle=orthogonalEdgeStyle;rounded=0;orthogonalLoop=1;jettySize=auto;html=1;" edge="1" parent="1" source="7a84cebc1def654-9" target="7a84cebc1def654-29">
          <mxGeometry relative="1" as="geometry" />
        </mxCell>
        <mxCell id="7a84cebc1def654-9" value="" style="shape=mxgraph.bpmn.shape;html=1;verticalLabelPosition=bottom;labelBackgroundColor=#ffffff;verticalAlign=top;perimeter=rhombusPerimeter;background=gateway;outline=none;symbol=parallelGw;" parent="1" vertex="1">
          <mxGeometry x="695" y="490" width="50" height="50" as="geometry" />
        </mxCell>
        <mxCell id="7a84cebc1def654-12" value="конец" style="html=1;whiteSpace=wrap;rounded=1;" parent="1" vertex="1">
          <mxGeometry x="970" y="250" width="120" height="80" as="geometry" />
        </mxCell>
        <mxCell id="7a84cebc1def654-13" value="" style="html=1;shape=plus;" parent="7a84cebc1def654-12" vertex="1">
          <mxGeometry x="0.5" y="1" width="14" height="14" relative="1" as="geometry">
            <mxPoint x="-7" y="-14" as="offset" />
          </mxGeometry>
        </mxCell>
        <mxCell id="7a84cebc1def654-14" value="отменить заказ" style="html=1;whiteSpace=wrap;rounded=1;" parent="1" vertex="1">
          <mxGeometry x="780" y="250" width="120" height="80" as="geometry" />
        </mxCell>
        <mxCell id="7a84cebc1def654-15" value="" style="html=1;shape=message;" parent="7a84cebc1def654-14" vertex="1">
          <mxGeometry width="20" height="14" relative="1" as="geometry">
            <mxPoint x="7" y="7" as="offset" />
          </mxGeometry>
        </mxCell>
        <mxCell id="x8mJ2KGKmqmnKPWXoIKg-7" value="" style="edgeStyle=none;rounded=0;orthogonalLoop=1;jettySize=auto;html=1;entryX=0.5;entryY=0;entryDx=0;entryDy=0;" edge="1" parent="1" source="7a84cebc1def654-20" target="7a84cebc1def654-13">
          <mxGeometry relative="1" as="geometry">
            <mxPoint x="1110" y="685" as="targetPoint" />
          </mxGeometry>
        </mxCell>
        <mxCell id="7a84cebc1def654-20" value="Доставить" style="html=1;whiteSpace=wrap;rounded=1;" parent="1" vertex="1">
          <mxGeometry x="1050" y="775" width="120" height="80" as="geometry" />
        </mxCell>
        <mxCell id="7a84cebc1def654-21" value="" style="html=1;shape=message;" parent="7a84cebc1def654-20" vertex="1">
          <mxGeometry width="20" height="14" relative="1" as="geometry">
            <mxPoint x="7" y="7" as="offset" />
          </mxGeometry>
        </mxCell>
        <mxCell id="7a84cebc1def654-22" value="Обработать карту" style="html=1;whiteSpace=wrap;rounded=1;" parent="1" vertex="1">
          <mxGeometry x="905" y="775" width="120" height="80" as="geometry" />
        </mxCell>
        <mxCell id="7a84cebc1def654-23" value="" style="html=1;shape=plus;" parent="7a84cebc1def654-22" vertex="1">
          <mxGeometry x="0.5" y="1" width="14" height="14" relative="1" as="geometry">
            <mxPoint x="-7" y="-14" as="offset" />
          </mxGeometry>
        </mxCell>
        <mxCell id="7a84cebc1def654-28" value="клиент" style="shape=message;whiteSpace=wrap;html=1;" parent="1" vertex="1">
          <mxGeometry x="1010" y="175" width="40" height="30" as="geometry" />
        </mxCell>
        <mxCell id="7a84cebc1def654-29" value="Платежная система" style="html=1;whiteSpace=wrap;rounded=1;" parent="1" vertex="1">
          <mxGeometry x="660" y="655" width="120" height="80" as="geometry" />
        </mxCell>
        <mxCell id="7a84cebc1def654-30" value="" style="html=1;shape=plus;" parent="7a84cebc1def654-29" vertex="1">
          <mxGeometry x="0.5" y="1" width="14" height="14" relative="1" as="geometry">
            <mxPoint x="-7" y="-14" as="offset" />
          </mxGeometry>
        </mxCell>
        <mxCell id="7a84cebc1def654-31" value="проверить карту" style="shape=message;whiteSpace=wrap;html=1;" parent="1" vertex="1">
          <mxGeometry x="700" y="775" width="40" height="30" as="geometry" />
        </mxCell>
        <mxCell id="7a84cebc1def654-36" style="edgeStyle=orthogonalEdgeStyle;rounded=0;html=1;jettySize=auto;orthogonalLoop=1;" parent="1" source="7a84cebc1def654-1" target="7a84cebc1def654-2" edge="1">
          <mxGeometry relative="1" as="geometry" />
        </mxCell>
        <mxCell id="7a84cebc1def654-38" style="edgeStyle=orthogonalEdgeStyle;rounded=0;html=1;jettySize=auto;orthogonalLoop=1;endArrow=none;endFill=0;" parent="1" source="7a84cebc1def654-5" target="7a84cebc1def654-3" edge="1">
          <mxGeometry relative="1" as="geometry" />
        </mxCell>
        <mxCell id="7a84cebc1def654-39" style="edgeStyle=orthogonalEdgeStyle;rounded=0;html=1;jettySize=auto;orthogonalLoop=1;" parent="1" source="7a84cebc1def654-2" target="7a84cebc1def654-3" edge="1">
          <mxGeometry relative="1" as="geometry" />
        </mxCell>
        <mxCell id="7a84cebc1def654-40" style="edgeStyle=orthogonalEdgeStyle;rounded=0;html=1;jettySize=auto;orthogonalLoop=1;" parent="1" source="7a84cebc1def654-14" target="7a84cebc1def654-12" edge="1">
          <mxGeometry relative="1" as="geometry" />
        </mxCell>
        <mxCell id="7a84cebc1def654-42" style="edgeStyle=orthogonalEdgeStyle;rounded=0;html=1;jettySize=auto;orthogonalLoop=1;endArrow=none;endFill=0;" parent="1" source="7a84cebc1def654-28" target="7a84cebc1def654-12" edge="1">
          <mxGeometry relative="1" as="geometry" />
        </mxCell>
        <mxCell id="7a84cebc1def654-47" style="edgeStyle=orthogonalEdgeStyle;rounded=0;html=1;jettySize=auto;orthogonalLoop=1;" parent="1" source="7a84cebc1def654-3" target="7a84cebc1def654-6" edge="1">
          <mxGeometry relative="1" as="geometry" />
        </mxCell>
        <mxCell id="7a84cebc1def654-48" style="edgeStyle=orthogonalEdgeStyle;rounded=0;html=1;jettySize=auto;orthogonalLoop=1;" parent="1" source="7a84cebc1def654-6" target="7a84cebc1def654-8" edge="1">
          <mxGeometry relative="1" as="geometry" />
        </mxCell>
        <mxCell id="7a84cebc1def654-49" style="edgeStyle=orthogonalEdgeStyle;rounded=0;html=1;jettySize=auto;orthogonalLoop=1;" parent="1" source="7a84cebc1def654-8" target="7a84cebc1def654-9" edge="1">
          <mxGeometry relative="1" as="geometry" />
        </mxCell>
        <mxCell id="7a84cebc1def654-50" value="нет" style="edgeStyle=orthogonalEdgeStyle;rounded=0;html=1;jettySize=auto;orthogonalLoop=1;" parent="1" source="7a84cebc1def654-9" target="7a84cebc1def654-14" edge="1">
          <mxGeometry relative="1" as="geometry">
            <Array as="points">
              <mxPoint x="720" y="290" />
            </Array>
          </mxGeometry>
        </mxCell>
        <mxCell id="7a84cebc1def654-51" value="есть" style="edgeStyle=orthogonalEdgeStyle;rounded=0;html=1;jettySize=auto;orthogonalLoop=1;" parent="1" source="7a84cebc1def654-9" target="7a84cebc1def654-29" edge="1">
          <mxGeometry relative="1" as="geometry" />
        </mxCell>
        <mxCell id="7a84cebc1def654-52" style="edgeStyle=orthogonalEdgeStyle;rounded=0;html=1;jettySize=auto;orthogonalLoop=1;endArrow=none;endFill=0;" parent="1" source="7a84cebc1def654-31" target="7a84cebc1def654-29" edge="1">
          <mxGeometry relative="1" as="geometry" />
        </mxCell>
        <mxCell id="7a84cebc1def654-53" value="ОК?" style="shape=mxgraph.bpmn.shape;html=1;verticalLabelPosition=bottom;labelBackgroundColor=#ffffff;verticalAlign=top;perimeter=rhombusPerimeter;background=gateway;outline=none;symbol=parallelGw;" parent="1" vertex="1">
          <mxGeometry x="830" y="670" width="50" height="50" as="geometry" />
        </mxCell>
        <mxCell id="7a84cebc1def654-54" style="edgeStyle=orthogonalEdgeStyle;rounded=0;html=1;jettySize=auto;orthogonalLoop=1;" parent="1" source="7a84cebc1def654-53" target="7a84cebc1def654-22" edge="1">
          <mxGeometry relative="1" as="geometry">
            <Array as="points">
              <mxPoint x="855" y="815" />
            </Array>
          </mxGeometry>
        </mxCell>
        <mxCell id="x8mJ2KGKmqmnKPWXoIKg-5" value="да" style="edgeLabel;html=1;align=center;verticalAlign=middle;resizable=0;points=[];" vertex="1" connectable="0" parent="7a84cebc1def654-54">
          <mxGeometry x="-0.0345" y="3" relative="1" as="geometry">
            <mxPoint as="offset" />
          </mxGeometry>
        </mxCell>
        <mxCell id="7a84cebc1def654-55" style="rounded=0;html=1;jettySize=auto;orthogonalLoop=1;entryX=0.575;entryY=1.063;entryDx=0;entryDy=0;entryPerimeter=0;" parent="1" source="7a84cebc1def654-53" target="7a84cebc1def654-14" edge="1">
          <mxGeometry relative="1" as="geometry" />
        </mxCell>
        <mxCell id="x8mJ2KGKmqmnKPWXoIKg-3" value="нет" style="edgeLabel;html=1;align=center;verticalAlign=middle;resizable=0;points=[];" vertex="1" connectable="0" parent="7a84cebc1def654-55">
          <mxGeometry x="0.0146" relative="1" as="geometry">
            <mxPoint as="offset" />
          </mxGeometry>
        </mxCell>
        <mxCell id="7a84cebc1def654-58" style="edgeStyle=orthogonalEdgeStyle;rounded=0;html=1;jettySize=auto;orthogonalLoop=1;" parent="1" source="7a84cebc1def654-29" target="7a84cebc1def654-53" edge="1">
          <mxGeometry relative="1" as="geometry" />
        </mxCell>
        <mxCell id="7a84cebc1def654-59" style="edgeStyle=orthogonalEdgeStyle;rounded=0;html=1;jettySize=auto;orthogonalLoop=1;" parent="1" source="7a84cebc1def654-22" target="7a84cebc1def654-20" edge="1">
          <mxGeometry relative="1" as="geometry" />
        </mxCell>
      </root>
    </mxGraphModel>
  </diagram>
</mxfile>
